# xmcd CD database file
#
# Track frame offsets:
#	150
#	11410
#	33570
#	56402
#	76752
#	97475
#	113305
#	131890
#	143043
#	166185
#	178907
#
# Disc length: 2593 seconds
#
# Revision: 2
# Processed by: cddbd v1.5.2PL0 Copyright (c) Steve Scherf et al.
# Submitted via: CDex 1.70beta2
#
DISCID=8b0a1f0b
DTITLE=Tatiana Parra - Inteira
DYEAR=2010
DGENRE=Jazz
TTITLE0=Abrindo a porta
TTITLE1=Bandeira
TTITLE2=Vento Bom
TTITLE3=Depois
TTITLE4=Oração
TTITLE5=Choro das águas
TTITLE6=Inteira
TTITLE7=Amor de parceria
TTITLE8=Uma valsa para três
TTITLE9=Testamento
TTITLE10=Sabiá
EXTD=YEAR: 2010
EXTT0=
EXTT1=
EXTT2=
EXTT3=
EXTT4=
EXTT5=
EXTT6=
EXTT7=
EXTT8=
EXTT9=
EXTT10=
PLAYORDER=
